<svg width="16" height="14" viewBox="0 0 16 14" fill="none" xmlns="http://www.w3.org/2000/svg">
<path d="M14.564 10.3323C16.0135 8.29855 15.7919 5.51228 13.8121 3.6973C12.9075 2.86806 11.7543 2.35182 10.5086 2.20765C10.5008 2.1981 10.4929 2.18863 10.4842 2.17958C9.40045 1.05385 7.8435 0.408203 6.21254 0.408203C3.10886 0.408203 0.5 2.72069 0.5 5.68164C0.5 6.71978 0.822471 7.71496 1.43504 8.57444L0.579307 11.2611C0.525518 11.43 0.578428 11.6146 0.713457 11.7294C0.848721 11.8443 1.03953 11.8664 1.19718 11.7862L3.79953 10.463C4.33396 10.6931 4.90068 10.8441 5.48756 10.9128C6.61965 12.1033 8.18501 12.7129 9.78652 12.7129C10.619 12.7129 11.4485 12.5432 12.1994 12.2208L14.8019 13.5441C14.8649 13.5761 14.9331 13.5918 15.001 13.5918C15.2975 13.5918 15.5101 13.3028 15.4198 13.019L14.564 10.3323ZM3.97689 9.57874C3.85382 9.52029 3.71064 9.52223 3.58921 9.58398L1.73568 10.5265L2.34096 8.62609C2.38502 8.48772 2.35792 8.33655 2.26851 8.22215C1.68649 7.47713 1.37885 6.59866 1.37885 5.68164C1.37885 3.2585 3.54723 1.28711 6.21254 1.28711C7.28586 1.28711 8.31913 1.61228 9.15729 2.19783C6.33459 2.48166 4.07398 4.68637 4.07398 7.43945C4.07398 8.29574 4.29348 9.1201 4.70729 9.85867C4.45675 9.78405 4.21273 9.69074 3.97689 9.57874ZM12.4099 11.3418C12.2902 11.2809 12.1469 11.2773 12.0222 11.3366C11.3371 11.662 10.564 11.834 9.78652 11.834C7.12121 11.834 4.95283 9.8626 4.95283 7.43945C4.95283 5.01631 7.12121 3.04492 9.78652 3.04492C12.4518 3.04492 14.6202 5.01631 14.6202 7.43945C14.6202 8.35647 14.3126 9.23494 13.7305 9.97993C13.6411 10.0943 13.614 10.2455 13.6581 10.3839L14.2633 12.2842L12.4099 11.3418Z" fill="#1799E5"/>
</svg>
