<svg width="19" height="15" viewBox="0 0 19 15" fill="none" xmlns="http://www.w3.org/2000/svg">
<path fill-rule="evenodd" clip-rule="evenodd" d="M2.08886 2.12829L9.50004 7.31612L16.9112 2.12829C16.7734 1.85577 16.49 1.66667 16.1667 1.66667H2.83337C2.51007 1.66667 2.22667 1.85577 2.08886 2.12829ZM17 4.10055L9.97793 9.01603C9.69099 9.21688 9.30909 9.21688 9.02215 9.01603L2.00004 4.10055V12.5C2.00004 12.9564 2.37694 13.3333 2.83337 13.3333H16.1667C16.6231 13.3333 17 12.9564 17 12.5V4.10055ZM0.333374 2.5C0.333374 1.1231 1.45647 0 2.83337 0H16.1667C17.5436 0 18.6667 1.1231 18.6667 2.5V12.5C18.6667 13.8769 17.5436 15 16.1667 15H2.83337C1.45647 15 0.333374 13.8769 0.333374 12.5V2.5Z" fill="#1799E5"/>
</svg>
