<svg width="285" height="238" viewBox="0 0 285 238" fill="none" xmlns="http://www.w3.org/2000/svg">
<g clip-path="url(#clip0_4785_43435)">
<path d="M60.8342 141.438C60.8342 141.438 46.9947 159.906 49.4222 174.34C49.4222 174.34 51.2821 174.434 52.8269 172.071C54.3716 169.707 49.0439 176.199 55.1597 193.816L57.7763 193.312C58.596 190.318 71.6789 206.233 94.3769 216.223C118.966 227.033 124.609 221.833 124.609 221.833L74.6738 135.167L60.8342 141.438Z" fill="url(#paint0_linear_4785_43435)"/>
<path d="M225.111 140.745C225.111 140.745 240.212 159.938 237.785 174.34C237.785 174.34 235.925 174.435 234.38 172.071C232.835 169.707 238.163 176.199 232.047 193.816L229.43 193.312C228.611 190.318 215.528 206.233 192.83 216.223C168.24 227.033 162.597 221.833 162.597 221.833L212.501 135.104L225.111 140.745Z" fill="url(#paint1_linear_4785_43435)"/>
<path d="M65.3424 130.44C65.3424 130.44 78.7406 226.276 145.29 226.812C212.848 227.348 216.064 141.817 215.024 133.623C213.983 125.429 70.8908 129.589 65.3424 130.44Z" fill="url(#paint2_radial_4785_43435)"/>
<path d="M82.5236 144.968C82.5236 144.968 89.5852 221.77 145.794 223.85C201.058 225.898 201.058 155.242 200.207 148.498C199.356 141.754 87.1262 144.243 82.5236 144.968Z" fill="#007DBC"/>
<path opacity="0.7" d="M75.0205 166.115C75.0205 166.115 74.6422 161.324 97.6556 172.922C120.669 184.519 138.827 197.314 162.093 185.307C185.358 173.3 206.449 163.751 211.997 164.035L214.298 149.569L70.1342 151.586L75.0205 166.115Z" fill="#004370"/>
<path fill-rule="evenodd" clip-rule="evenodd" d="M61.843 70.8768L52.7953 69.7423C58.0915 28.0166 97.3402 3.21446 133.373 0.283584C176.153 -3.18305 225.899 25.3064 231.826 73.2719L222.81 74.3434C217.514 31.5148 172.717 6.11383 134.161 9.2338C102.573 11.818 66.4772 34.2881 61.843 70.8768Z" fill="#7B7979"/>
<path fill-rule="evenodd" clip-rule="evenodd" d="M55.475 70.0892L61.5593 70.8455C66.225 34.2253 102.384 11.7237 134.035 9.13949C172.685 5.98801 217.577 31.452 222.905 74.3437L228.043 73.7449C219.878 28.5841 173.379 2.20623 133.153 5.67286C99.6416 8.60374 63.1986 31.5465 55.475 70.0892Z" fill="#4F4949"/>
<path fill-rule="evenodd" clip-rule="evenodd" d="M45.8282 74.2489C45.8282 74.2489 54.0878 54.5837 57.0512 54.1425C60.0145 53.7013 66.5402 54.0479 66.5402 54.0479L66.3511 69.8053C66.3511 69.8053 55.5064 79.2913 45.8282 74.2489Z" fill="#BB7C1D"/>
<path fill-rule="evenodd" clip-rule="evenodd" d="M237.217 73.3033C237.217 73.3033 228.548 53.6695 225.584 53.3229C222.621 52.9762 216.032 53.3859 216.032 53.3859L216.505 69.2063C216.474 69.2379 227.539 78.5662 237.217 73.3033Z" fill="#BB7C1D"/>
<path fill-rule="evenodd" clip-rule="evenodd" d="M234.191 66.6854C231.416 60.9812 227.444 53.5437 225.647 53.3231C222.652 52.9449 216.095 53.3861 216.095 53.3861C216.095 53.3861 222.558 64.3533 234.191 66.6854Z" fill="#DC9122"/>
<path fill-rule="evenodd" clip-rule="evenodd" d="M54.2455 71.1606C18.6221 74.7218 22.279 143.235 61.8115 140.777C101.344 138.319 54.2455 71.1606 54.2455 71.1606Z" fill="url(#paint3_linear_4785_43435)"/>
<path fill-rule="evenodd" clip-rule="evenodd" d="M36.8436 109.514C35.6456 109.262 34.4161 108.254 33.2497 106.237C29.3091 99.3981 36.4022 78.3778 45.2292 75.7935C45.6391 75.6675 46.0489 75.636 46.4587 75.699C49.8319 76.3608 49.4536 85.2165 47.2469 93.694C45.0401 102.171 40.9418 110.302 36.8436 109.514Z" fill="#EFDEB5" fill-opacity="0.51"/>
<path fill-rule="evenodd" clip-rule="evenodd" d="M37.5687 92.654C37.5056 92.654 37.4426 92.6225 37.411 92.591C36.1816 92.0867 36.3077 88.7146 37.7263 85.0589C39.0819 81.5608 41.131 79.0711 42.392 79.3232C42.455 79.3232 42.5181 79.3547 42.5496 79.3547C43.7791 79.859 43.653 83.2311 42.2344 86.8868C40.8473 90.4165 38.8297 92.8746 37.5687 92.654Z" fill="white"/>
<path fill-rule="evenodd" clip-rule="evenodd" d="M57.4294 125.524C34.4792 120.986 30.4125 109.987 29.8135 104.85C29.9711 123.255 40.8473 142.101 61.906 140.808C67.3283 140.462 71.1113 138.918 73.6018 136.491C71.0168 131.417 66.0988 127.226 57.4294 125.524Z" fill="#BB7C1D"/>
<path fill-rule="evenodd" clip-rule="evenodd" d="M69.9764 68.8601C35.6141 52.756 31.8626 147.994 72.4039 145.882C112.945 143.771 69.9764 68.8601 69.9764 68.8601Z" fill="#5E3D11"/>
<path fill-rule="evenodd" clip-rule="evenodd" d="M88.6708 132.646C93.2735 110.397 69.472 68.6081 69.472 68.6081C68.6524 68.2299 67.8012 67.8832 66.9185 67.5996C63.7975 72.9886 40.8473 112.382 62.8833 135.672C70.8276 144.055 80.8211 140.493 88.6708 132.646Z" fill="#462E0C"/>
<path fill-rule="evenodd" clip-rule="evenodd" d="M71.7104 146.292C75.1782 146.103 78.0469 145.378 80.3798 144.244C74.6422 130.314 68.3057 118.401 64.3335 121.837C55.6641 129.337 45.1348 122.152 45.1348 122.152L45.2609 123.286C49.4222 136.68 58.06 147.017 71.7104 146.292Z" fill="#27242B"/>
<path fill-rule="evenodd" clip-rule="evenodd" d="M224.512 69.9947C260.104 67.0323 268.679 135.167 229.462 139.895C190.245 144.622 224.512 69.9947 224.512 69.9947Z" fill="url(#paint4_linear_4785_43435)"/>
<path fill-rule="evenodd" clip-rule="evenodd" d="M247.62 104.944C243.522 105.385 238.131 97.6958 234.695 89.7856C231.259 81.8754 229.84 73.7761 233.655 73.3664C233.875 73.3349 234.065 73.3349 234.285 73.3664C243.491 74.2488 254.146 93.4729 251.403 100.879C250.426 103.558 249.102 104.787 247.62 104.944Z" fill="#EFDEB5" fill-opacity="0.51"/>
<path fill-rule="evenodd" clip-rule="evenodd" d="M244.342 87.9578C243.144 88.0838 241.032 86.193 239.329 83.3251C237.438 80.1421 236.744 76.9906 237.848 76.2658C237.974 76.2028 238.1 76.1397 238.257 76.1397C239.455 76.0137 241.567 77.9046 243.27 80.7724C245.161 83.9554 245.855 87.1069 244.783 87.8317C244.625 87.8948 244.468 87.9263 244.342 87.9578Z" fill="white"/>
<path fill-rule="evenodd" clip-rule="evenodd" d="M231.133 124.295C252.917 115.628 254.934 103.905 254.619 98.7046C257.771 117.078 250.458 137.814 229.462 140.367C224.071 141.029 220.067 140.147 217.136 138.193C218.775 132.615 222.873 127.572 231.133 124.295Z" fill="#BB7C1D"/>
<path fill-rule="evenodd" clip-rule="evenodd" d="M209.16 70.2782C239.802 48.2493 260.609 141.659 220.666 146.796C180.724 151.933 209.16 70.2782 209.16 70.2782Z" fill="#5E3D11"/>
<path fill-rule="evenodd" clip-rule="evenodd" d="M201.877 136.617C193.429 115.534 209.191 70.0893 209.191 70.0893C209.916 69.5536 210.704 69.0809 211.493 68.6396C215.496 73.3669 244.909 108.065 227.57 134.947C221.297 144.653 210.894 142.952 201.877 136.617Z" fill="#462E0C"/>
<path fill-rule="evenodd" clip-rule="evenodd" d="M220.351 146.702C216.915 147.143 213.983 146.954 211.461 146.229C214.614 131.606 218.712 118.874 223.22 121.521C233.087 127.289 242.135 118.401 242.135 118.401L242.23 119.536C240.559 133.371 233.907 144.968 220.351 146.702Z" fill="#462E0C"/>
<path fill-rule="evenodd" clip-rule="evenodd" d="M51.4713 61.958L51.7235 62.1156C51.7235 62.1156 57.398 70.4985 66.3827 54.0163C66.3827 54.0163 59.8885 53.7011 56.9252 54.1423C55.6957 54.2999 53.552 57.8611 51.4713 61.958Z" fill="#DC9122"/>
<path d="M232.52 120.04C234.411 122.876 235.956 123.916 235.956 123.916C235.956 123.916 231.921 119.599 231.511 109.987C231.101 100.375 225.08 91.645 225.08 91.645C228.453 93.1262 230.376 97.9795 230.376 97.9795C228.485 82.4427 218.869 64.0696 218.869 64.0696C239.392 48.9109 230.723 40.8746 230.723 40.8746C235.924 37.3135 235.672 33.8783 235.672 33.8783C218.207 32.4602 207.457 33.4687 183.341 45.2237C172.654 50.4236 158.341 54.3315 142.61 55.9387C126.911 54.3315 112.598 50.4236 101.911 45.2237C77.7632 33.4687 67.0446 32.4602 49.5797 33.8783C49.5797 33.8783 49.3275 37.345 54.5292 40.8746C54.5292 40.8746 45.8598 48.9109 66.3826 64.0696C66.3826 64.0696 56.7675 82.4427 54.876 97.9795C54.876 97.9795 56.7675 93.1262 60.1722 91.645C60.1722 91.645 54.1509 100.375 53.741 109.987C53.3312 119.599 49.296 123.916 49.296 123.916C49.296 123.916 50.8092 122.876 52.7322 120.04C52.7322 120.04 51.9756 124.925 47.5621 127.036C47.5621 127.036 49.9265 131.511 52.2594 135.325C55.4434 140.556 67.6436 154.58 99.9568 170.747C109.32 175.443 124.2 185.685 142.453 186.063H142.705H142.957C161.21 185.717 176.09 175.443 185.453 170.747C217.577 154.58 229.809 140.556 232.993 135.356C235.326 131.543 237.69 127.068 237.69 127.068C233.276 124.956 232.52 120.04 232.52 120.04Z" fill="url(#paint5_radial_4785_43435)"/>
<path d="M235.546 33.9415C218.081 32.4918 207.331 33.5318 183.215 45.2553C172.528 50.4553 158.215 54.3946 142.484 55.9704C126.785 54.3946 112.472 50.4553 101.785 45.2553C77.6371 33.5003 66.9185 32.4918 49.4536 33.9415C49.4536 33.9415 49.2014 37.3766 54.4031 40.9378C54.4031 40.9378 57.9339 51.9365 79.6231 64.5739C75.6194 68.986 72.3093 73.9968 69.8504 79.4174C65.9412 88.084 56.4837 115.376 69.409 134.442C82.3343 153.509 110.392 169.298 122.371 173.773C128.298 176.01 135.139 177.712 142.232 178.059V178.09H142.484H142.736V178.059C149.798 177.712 156.639 176.01 162.597 173.773C174.545 169.298 202.602 153.477 215.559 134.442C228.516 115.407 218.996 88.084 215.149 79.4174C212.691 73.9968 209.38 68.986 205.377 64.5739C227.066 51.9365 230.597 40.9378 230.597 40.9378C235.798 37.3766 235.546 33.9415 235.546 33.9415Z" fill="url(#paint6_radial_4785_43435)"/>
<path opacity="0.2" d="M52.89 39.7401L54.4032 40.9061C54.4032 40.9061 59.5102 47.2406 93.8726 57.9872C128.235 68.7337 136.904 76.1397 138.985 93.0317C141.066 109.924 142.39 97.7589 142.768 93.0317C143.146 88.3044 145.574 72.9567 169.817 65.2986C195.73 57.1047 230.628 40.9376 230.628 40.9376C235.83 37.3765 235.578 33.9413 235.578 33.9413C218.113 32.5232 207.363 33.5316 183.246 45.2867C172.559 50.4866 158.247 54.3945 142.516 56.0017C126.816 54.3945 112.504 50.4866 101.817 45.2867C77.6687 33.5316 66.9502 32.5232 49.4853 33.9413C49.4853 33.9098 49.2646 36.6201 52.89 39.7401Z" fill="#00D6FD"/>
<g opacity="0.5">
<path opacity="0.5" d="M103.362 140.525C102.006 140.525 100.619 140.43 99.2949 140.241C90.7831 139.075 83.2171 134.442 78.0785 127.162C72.9399 119.882 70.7332 110.775 71.9942 101.604C74.327 84.3337 88.3242 71.3496 104.528 71.3496C105.884 71.3496 107.239 71.4442 108.595 71.6332C126.217 74.0284 138.481 91.3615 135.896 110.27C133.563 127.509 119.566 140.525 103.362 140.525Z" fill="#1169B0"/>
<path opacity="0.5" d="M104.497 70.4043V72.2952C105.821 72.2952 107.145 72.3897 108.437 72.5788C116.697 73.7134 124.011 78.1885 129.023 85.2793C134.036 92.3701 136.148 101.226 134.95 110.176C132.68 126.973 119.093 139.611 103.362 139.611C102.038 139.611 100.714 139.516 99.4211 139.359C82.3029 137.027 70.418 120.166 72.9085 101.762C75.1783 84.9642 88.7656 72.2952 104.528 72.2952V70.4043H104.497ZM104.497 70.4043C87.9775 70.4043 73.4444 83.5145 71.017 101.478C68.3689 120.954 80.9789 138.728 99.1373 141.187C100.524 141.376 101.943 141.47 103.33 141.47C119.818 141.47 134.382 128.36 136.81 110.397C139.458 90.9205 126.848 73.1461 108.689 70.6879C107.302 70.4988 105.915 70.4043 104.497 70.4043Z" fill="#00365B"/>
</g>
<path d="M134.035 90.2587C133.909 89.9435 133.752 89.6599 133.626 89.3447L123.884 94.0089L124.231 94.5132L134.035 90.2587Z" fill="#00557F"/>
<path d="M130.505 84.0815L121.646 90.4475L121.804 90.9833L131.104 84.9955C130.914 84.6803 130.725 84.3652 130.505 84.0815Z" fill="#00557F"/>
<path d="M85.613 96.5299L75.0205 88.9033C74.8314 89.25 74.6422 89.6282 74.4846 89.9748L85.1716 97.1287L85.613 96.5299Z" fill="#00557F"/>
<path d="M83.4377 106.331L83.4062 105.512L70.67 106.772C70.67 107.245 70.7016 107.718 70.7016 108.19L83.4377 106.331Z" fill="#00557F"/>
<path d="M126.28 79.1652C126.028 78.9446 125.807 78.724 125.555 78.5034L125.051 78.1567L118.147 87.0439L118.809 87.4536L126.28 79.1652Z" fill="#00557F"/>
<path d="M83.9106 100.154L84.0682 99.6498L71.7734 97.5698C71.6789 97.948 71.5843 98.3262 71.5212 98.7359L83.9106 100.154Z" fill="#00557F"/>
<path d="M88.1981 118.685L87.5991 117.96L75.8402 125.492C76.0924 125.933 76.3446 126.343 76.6283 126.753L88.1981 118.685Z" fill="#00557F"/>
<path d="M84.6988 112.477L71.9312 116.132C72.0573 116.573 72.1834 117.046 72.3095 117.487L85.2032 113.138L84.6988 112.477Z" fill="#00557F"/>
<path d="M94.2194 83.7349L97.2142 82.6634L93.0529 72.5786C91.2245 73.3035 89.4275 74.1859 87.7567 75.2259L94.2194 83.7349Z" fill="#00557F"/>
<path d="M126.785 108.348L126.28 108.537L136.684 111.121C136.715 110.869 136.747 110.649 136.778 110.397C136.81 110.239 136.81 110.081 136.841 109.924L126.785 108.348Z" fill="#00557F"/>
<path d="M105.947 70.4355C104.181 70.341 102.447 70.4355 100.682 70.6246L102.006 81.9069L105.379 81.7809L105.947 70.4355Z" fill="#00557F"/>
<path d="M94.2823 72.1061L97.9708 82.569L101.092 81.9703L99.7362 70.751C97.8447 71.0346 96.0478 71.5073 94.2823 72.1061Z" fill="#00557F"/>
<path d="M120.101 75.3207C119.692 75.1316 119.282 74.911 118.84 74.7219L118.084 74.4067L113.67 84.3654L114.679 84.7121L120.101 75.3207Z" fill="#00557F"/>
<path d="M112.063 72.0112L111.117 71.6646L109.194 82.5372L109.856 82.7262L112.063 72.0112Z" fill="#00557F"/>
<path d="M127.447 103.778L127.037 104.976L137.188 104.598C137.188 104.093 137.156 103.589 137.125 103.085L127.447 103.778Z" fill="#00557F"/>
<path d="M121.488 117.929L120.921 118.496L131.261 125.65C131.513 125.24 131.797 124.799 132.049 124.389L121.488 117.929Z" fill="#00557F"/>
<path d="M126.154 131.89C127.037 131.007 127.888 130.093 128.676 129.148L126.154 131.89Z" fill="#00557F"/>
<path d="M124.736 113.39L124.42 114.052L134.95 118.054C135.107 117.613 135.265 117.172 135.391 116.731L124.736 113.39Z" fill="#00557F"/>
<path d="M101.47 126.438L100.367 126.186L98.9796 141.155L99.1688 141.187C99.7362 141.281 100.304 141.313 100.903 141.376L101.47 126.438Z" fill="#00557F"/>
<path d="M125.398 98.2949L125.492 98.9567L136.242 96.9398C136.148 96.5301 136.053 96.1519 135.959 95.7422L125.398 98.2949Z" fill="#00557F"/>
<path d="M92.2332 122.75L91.2559 122.246L80.9788 132.142C81.3571 132.52 81.7354 132.898 82.1452 133.245L92.2332 122.75Z" fill="#00557F"/>
<path d="M88.2926 90.9519C87.9774 90.8259 82.1768 85.5314 79.1188 82.7266C78.6775 83.2623 78.2361 83.8296 77.8263 84.3968L87.4415 91.8343C87.4415 91.8659 88.734 91.141 88.2926 90.9519Z" fill="#00557F"/>
<path d="M90.5625 86.7287L93.2736 84.8378L86.4957 76.0137C85.1086 76.9591 83.7846 77.9991 82.5236 79.1336L89.5852 86.9808L90.5625 86.7287Z" fill="#00557F"/>
<path d="M117.516 122.372L116.665 122.624L124.736 133.213C125.208 132.803 125.681 132.362 126.123 131.921L117.516 122.372Z" fill="#00557F"/>
<path d="M95.5748 125.208L94.8813 124.893L89.2383 138.098C89.6166 138.287 90.0264 138.476 90.4362 138.665L95.5748 125.208Z" fill="#00557F"/>
<path d="M107.901 126.532L107.082 126.564L109.131 140.935C109.667 140.84 110.171 140.714 110.707 140.588L107.901 126.532Z" fill="#00557F"/>
<path d="M113.418 125.051L112.252 125.397L117.39 138.161C117.989 137.877 118.557 137.562 119.124 137.247L113.418 125.051Z" fill="#00557F"/>
<path d="M122.669 121.894C132.468 112.097 132.468 96.2141 122.669 86.4176C112.869 76.6211 96.9805 76.6211 87.1808 86.4176C77.3811 96.2141 77.3811 112.097 87.1808 121.894C96.9805 131.69 112.869 131.69 122.669 121.894Z" fill="#00557F"/>
<path d="M104.15 127.446C117.016 127.446 127.447 117.019 127.447 104.157C127.447 91.2942 117.016 80.8672 104.15 80.8672C91.2831 80.8672 80.8527 91.2942 80.8527 104.157C80.8527 117.019 91.2831 127.446 104.15 127.446Z" fill="url(#paint7_radial_4785_43435)"/>
<path opacity="0.5" d="M86.0859 112.508C82.7127 100.753 89.4906 88.4621 101.249 85.09C107.05 83.4197 113.292 84.2076 118.525 87.233C109.225 79.2598 95.2282 80.3313 87.2523 89.6282C79.2765 98.925 80.3483 112.918 89.6482 120.891C90.6886 121.773 91.792 122.561 92.9584 123.254C89.6798 120.418 87.2839 116.668 86.0859 112.508Z" fill="white"/>
<path d="M108.658 123.128C116.806 123.128 123.412 116.525 123.412 108.379C123.412 100.234 116.806 93.6304 108.658 93.6304C100.51 93.6304 93.9041 100.234 93.9041 108.379C93.9041 116.525 100.51 123.128 108.658 123.128Z" fill="url(#paint8_radial_4785_43435)" stroke="#008E07" stroke-width="2" stroke-miterlimit="10"/>
<path opacity="0.5" d="M110.896 119.221C116.206 119.221 120.511 114.917 120.511 109.609C120.511 104.3 116.206 99.9966 110.896 99.9966C105.586 99.9966 101.281 104.3 101.281 109.609C101.281 114.917 105.586 119.221 110.896 119.221Z" fill="#3D9926"/>
<path d="M111.085 117.393C115.334 117.393 118.777 113.95 118.777 109.703C118.777 105.456 115.334 102.014 111.085 102.014C106.837 102.014 103.393 105.456 103.393 109.703C103.393 113.95 106.837 117.393 111.085 117.393Z" fill="#102023"/>
<path d="M108.495 108.165C109.181 106.814 107.975 104.826 105.801 103.723C103.628 102.62 101.31 102.821 100.624 104.171C99.9387 105.521 101.145 107.51 103.318 108.613C105.492 109.715 107.81 109.515 108.495 108.165Z" fill="white"/>
<path opacity="0.3" d="M120.196 109.496C124.731 108.194 127.337 103.409 126.015 98.8083C124.694 94.2076 119.946 91.5334 115.411 92.8352C110.875 94.137 108.27 98.922 109.592 103.523C110.913 108.123 115.661 110.798 120.196 109.496Z" fill="white"/>
<g opacity="0.5">
<path opacity="0.5" d="M180.157 140.525C163.953 140.525 149.956 127.509 147.623 110.27C146.393 101.1 148.537 92.0233 153.707 84.7119C158.877 77.4005 166.412 72.7993 174.924 71.6332C176.279 71.4442 177.635 71.3496 178.99 71.3496C195.194 71.3496 209.191 84.3652 211.524 101.604C214.078 120.544 201.814 137.877 184.192 140.241C182.868 140.43 181.512 140.525 180.157 140.525Z" fill="#1169B0"/>
<path opacity="0.5" d="M179.022 72.2952C194.753 72.2952 208.34 84.9642 210.61 101.73C211.808 110.68 209.727 119.504 204.683 126.627C199.639 133.749 192.357 138.193 184.097 139.327C182.805 139.516 181.481 139.579 180.157 139.579C164.426 139.579 150.838 126.91 148.537 110.145C146.047 91.7399 157.932 74.8795 175.05 72.5789C176.374 72.3583 177.698 72.2952 179.022 72.2952ZM179.022 70.4044C177.603 70.4044 176.216 70.4989 174.829 70.688C156.671 73.1461 144.061 90.9205 146.709 110.397C149.136 128.36 163.669 141.47 180.188 141.47C181.607 141.47 182.994 141.376 184.381 141.187C202.54 138.729 215.15 120.954 212.501 101.478C210.043 83.5145 195.509 70.3728 179.022 70.4044Z" fill="#00365B"/>
</g>
<path d="M149.483 90.2587C149.609 89.9435 149.767 89.6599 149.924 89.3447L159.665 94.0089L159.319 94.5132L149.483 90.2587Z" fill="#00557F"/>
<path d="M152.982 84.0815L161.841 90.4475L161.683 90.9833L152.383 84.9955C152.572 84.6803 152.793 84.3652 152.982 84.0815Z" fill="#00557F"/>
<path d="M197.905 96.5299L208.498 88.9033C208.687 89.25 208.876 89.6282 209.034 89.9748L198.347 97.1287L197.905 96.5299Z" fill="#00557F"/>
<path d="M200.081 106.331L200.112 105.512L212.848 106.772C212.848 107.245 212.817 107.718 212.817 108.19L200.081 106.331Z" fill="#00557F"/>
<path d="M157.238 79.1652C157.459 78.9446 157.711 78.724 157.963 78.5034L158.468 78.1567L165.372 87.0439L164.709 87.4536L157.238 79.1652Z" fill="#00557F"/>
<path d="M199.608 100.154L199.45 99.6498L211.745 97.5698C211.84 97.948 211.934 98.3262 211.997 98.7359L199.608 100.154Z" fill="#00557F"/>
<path d="M195.289 118.685L195.919 117.96L207.678 125.492C207.426 125.933 207.142 126.343 206.89 126.753L195.289 118.685Z" fill="#00557F"/>
<path d="M198.819 112.477L211.587 116.132C211.461 116.573 211.335 117.046 211.209 117.487L198.315 113.138L198.819 112.477Z" fill="#00557F"/>
<path d="M189.267 83.7351L186.273 82.6636L190.465 72.5474C192.294 73.2722 194.091 74.1546 195.762 75.1946L189.267 83.7351Z" fill="#00557F"/>
<path d="M156.702 108.348L157.206 108.537L146.803 111.121C146.772 110.869 146.74 110.649 146.709 110.397C146.677 110.239 146.677 110.081 146.646 109.924L156.702 108.348Z" fill="#00557F"/>
<path d="M177.54 70.4355C179.306 70.341 181.039 70.4355 182.805 70.6246L181.481 81.9069L178.108 81.7809L177.54 70.4355Z" fill="#00557F"/>
<path d="M189.236 72.1061L185.548 82.569L182.427 81.9703L183.782 70.751C185.642 71.0346 187.471 71.5073 189.236 72.1061Z" fill="#00557F"/>
<path d="M163.385 75.3207C163.795 75.1316 164.205 74.911 164.646 74.7219L165.403 74.4067L169.816 84.3654L168.808 84.7121L163.385 75.3207Z" fill="#00557F"/>
<path d="M171.456 72.0112L172.402 71.6646L174.325 82.5372L173.631 82.7578L171.456 72.0112Z" fill="#00557F"/>
<path d="M156.072 103.778L156.481 104.976L146.33 104.598C146.33 104.093 146.362 103.589 146.393 103.085L156.072 103.778Z" fill="#00557F"/>
<path d="M162.03 117.929L162.597 118.496L152.257 125.65C152.005 125.24 151.721 124.799 151.469 124.389L162.03 117.929Z" fill="#00557F"/>
<path d="M157.333 131.89C156.45 131.007 155.599 130.093 154.811 129.148L157.333 131.89Z" fill="#00557F"/>
<path d="M158.751 113.39L159.066 114.052L148.537 118.086C148.379 117.645 148.222 117.203 148.096 116.762L158.751 113.39Z" fill="#00557F"/>
<path d="M182.048 126.438L183.152 126.186L184.57 141.155C184.507 141.155 184.444 141.187 184.381 141.187C183.814 141.281 183.246 141.313 182.647 141.376L182.048 126.438Z" fill="#00557F"/>
<path d="M158.089 98.2949L157.995 98.9567L147.245 96.9398C147.339 96.5301 147.434 96.1519 147.528 95.7422L158.089 98.2949Z" fill="#00557F"/>
<path d="M191.285 122.75L192.231 122.246L202.476 132.142C202.098 132.52 201.72 132.898 201.31 133.245L191.285 122.75Z" fill="#00557F"/>
<path d="M195.226 90.9519C195.541 90.8259 201.342 85.5314 204.4 82.7266C204.841 83.2623 205.282 83.8296 205.692 84.3968L196.077 91.8343C196.077 91.8659 194.753 91.141 195.226 90.9519Z" fill="#00557F"/>
<path d="M192.956 86.7287L190.245 84.8378L197.023 76.0137C198.41 76.9591 199.734 77.9991 200.995 79.1336L193.902 86.9808L192.956 86.7287Z" fill="#00557F"/>
<path d="M165.97 122.372L166.822 122.624L158.72 133.213C158.247 132.803 157.774 132.362 157.333 131.921L165.97 122.372Z" fill="#00557F"/>
<path d="M187.912 125.208L188.605 124.893L194.248 138.098C193.839 138.287 193.46 138.476 193.05 138.665L187.912 125.208Z" fill="#00557F"/>
<path d="M175.586 126.532L176.405 126.564L174.356 140.935C173.82 140.84 173.316 140.714 172.78 140.588L175.586 126.532Z" fill="#00557F"/>
<path d="M170.069 125.051L171.235 125.397L166.097 138.161C165.498 137.877 164.93 137.562 164.363 137.247L170.069 125.051Z" fill="#00557F"/>
<path d="M196.308 121.892C206.108 112.095 206.108 96.2117 196.308 86.4151C186.509 76.6186 170.62 76.6186 160.821 86.4152C151.021 96.2117 151.021 112.095 160.821 121.891C170.62 131.688 186.509 131.688 196.308 121.892Z" fill="#00557F"/>
<path d="M179.337 127.446C192.204 127.446 202.634 117.019 202.634 104.157C202.634 91.2942 192.204 80.8672 179.337 80.8672C166.47 80.8672 156.04 91.2942 156.04 104.157C156.04 117.019 166.47 127.446 179.337 127.446Z" fill="url(#paint9_radial_4785_43435)"/>
<path opacity="0.5" d="M197.432 112.508C200.806 100.753 194.028 88.4621 182.269 85.09C176.468 83.4197 170.226 84.2076 164.993 87.233C174.293 79.2598 188.29 80.3313 196.266 89.6282C204.242 98.925 203.17 112.918 193.87 120.891C192.83 121.773 191.726 122.561 190.56 123.254C193.839 120.418 196.235 116.668 197.432 112.508Z" fill="white"/>
<path d="M174.861 123.16C183.009 123.16 189.614 116.557 189.614 108.411C189.614 100.265 183.009 93.6621 174.861 93.6621C166.712 93.6621 160.107 100.265 160.107 108.411C160.107 116.557 166.712 123.16 174.861 123.16Z" fill="url(#paint10_radial_4785_43435)" stroke="#008E07" stroke-width="2" stroke-miterlimit="10"/>
<path opacity="0.5" d="M172.591 119.252C177.901 119.252 182.206 114.948 182.206 109.64C182.206 104.331 177.901 100.028 172.591 100.028C167.28 100.028 162.976 104.331 162.976 109.64C162.976 114.948 167.28 119.252 172.591 119.252Z" fill="#3D9926"/>
<path d="M171.487 117.834C175.718 117.834 179.148 114.405 179.148 110.176C179.148 105.946 175.718 102.518 171.487 102.518C167.256 102.518 163.827 105.946 163.827 110.176C163.827 114.405 167.256 117.834 171.487 117.834Z" fill="#102023"/>
<path d="M180.197 108.611C182.37 107.508 183.576 105.52 182.891 104.169C182.205 102.819 179.887 102.618 177.714 103.721C175.54 104.824 174.334 106.813 175.02 108.163C175.705 109.513 178.023 109.714 180.197 108.611Z" fill="white"/>
<path opacity="0.3" d="M173.912 103.517C175.233 98.9162 172.628 94.1312 168.093 92.8294C163.557 91.5275 158.809 94.2018 157.488 98.8025C156.166 103.403 158.772 108.188 163.307 109.49C167.842 110.792 172.59 108.118 173.912 103.517Z" fill="white"/>
<path d="M139.363 87.3592C139.237 88.1156 137.85 74.9739 122.088 67.9461C104.339 60.0359 82.3344 55.7814 67.5807 48.0602C52.8269 40.3391 72.5616 52.1571 93.4628 54.5208C114.364 56.8844 128.456 60.288 131.829 58.6492C131.293 59.4056 130.599 60.0043 129.78 60.4456C128.456 61.1389 130.662 61.3595 132.018 59.374L132.68 59.5001C132.68 59.5001 132.333 62.5255 132.743 62.6201C133.153 62.7146 133.216 60.8237 133.216 60.8237C133.216 60.8237 140.971 78.6296 139.363 87.3592Z" fill="#1DA7DD"/>
<path d="M143.398 87.3592C143.525 88.1156 144.912 74.9739 160.674 67.9461C178.454 60.0359 200.427 55.7814 215.181 48.0602C229.935 40.3391 210.2 52.1571 189.299 54.5208C168.398 56.8844 154.306 60.288 150.901 58.6492C151.437 59.4056 152.131 60.0043 152.951 60.4456C154.275 61.1389 152.068 61.3595 150.712 59.374L150.05 59.5001C150.05 59.5001 150.397 62.5255 149.987 62.6201C149.577 62.7146 149.514 60.8237 149.514 60.8237C149.514 60.8237 141.759 78.6296 143.398 87.3592Z" fill="#1DA7DD"/>
<path opacity="0.7" d="M120.89 221.77C120.89 221.77 123.727 217.043 130.284 217.074C140.309 217.106 143.84 225.426 147.245 225.678C150.649 225.93 151.847 218.303 161.557 217.39C171.267 216.476 173.694 220.793 173.694 220.793C173.694 220.793 164.709 226.34 146.299 226.781C130.82 227.254 120.89 221.77 120.89 221.77Z" fill="#004370"/>
<path d="M122.718 222.526C122.718 222.526 127.92 217.704 135.58 219.122C143.241 220.541 144.124 226.623 144.124 226.623C144.124 226.623 139.174 238.599 137.093 237.968C135.013 237.338 134.004 233.556 130.41 236.077C126.816 238.599 126.249 237.338 122.718 222.526Z" fill="url(#paint11_linear_4785_43435)"/>
<path opacity="0.5" d="M135.139 126.217C135.139 126.217 133.184 131.165 131.135 133.749C129.086 136.333 129.717 139.359 135.391 149.002C141.066 158.646 140.341 162.365 144.439 156.282C148.537 150.2 154.117 137.752 153.487 135.23C152.856 132.709 150.019 132.646 148.127 126.532C146.236 120.418 138.607 118.937 135.139 126.217Z" fill="#1169B0"/>
<path d="M170.825 222.526C170.825 222.526 165.624 217.704 157.963 219.122C150.302 220.541 149.42 226.623 149.42 226.623C149.42 226.623 154.369 238.599 156.481 237.968C158.593 237.338 159.571 233.556 163.165 236.077C166.758 238.599 167.294 237.338 170.825 222.526Z" fill="url(#paint12_linear_4785_43435)"/>
<path d="M136.967 124.547C135.17 127.572 131.797 132.93 133.373 137.436C134.477 140.556 138.386 155.715 141.696 155.873C145.006 156.03 148.947 139.8 149.672 137.058C150.996 132.016 146.74 126.123 145.006 123.948C143.272 121.774 138.512 121.963 136.967 124.547Z" fill="url(#paint13_linear_4785_43435)"/>
<path opacity="0.3" d="M143.588 124.2C142.8 123.507 139.71 122.719 138.449 124.2C137.188 125.681 133.72 133.087 134.036 135.167C134.351 137.247 140.057 154.139 141.475 154.045C142.894 153.95 137.377 137.877 138.827 134.726C140.278 131.575 147.276 129.305 147.276 129.305C147.276 129.305 145.574 125.933 143.588 124.2Z" fill="white"/>
<path d="M137.598 129.274C136.211 131.259 135.297 133.591 135.391 135.136C135.486 136.68 137.283 142.353 137.598 142.037C137.913 141.722 135.297 134.757 138.764 131.89C142.232 129.022 139.08 127.162 137.598 129.274Z" fill="white"/>
<path opacity="0.3" d="M128.96 234.502C127.384 234.502 126.249 229.806 125.429 225.835C124.61 221.864 127.636 219.438 132.995 219.69C138.354 219.942 142.516 224.102 141.791 225.205C141.066 226.308 136.904 222.526 134.036 224.575C131.167 226.623 133.058 234.502 128.96 234.502Z" fill="white"/>
<path opacity="0.3" d="M164.363 221.36C159.949 220.352 153.234 220.446 151.469 223.882C149.703 227.317 154.527 236.551 156.45 235.92C158.373 235.29 155.851 225.93 161.525 225.111C167.2 224.291 167.799 222.148 164.363 221.36Z" fill="white"/>
<path d="M128.676 226.812C131.135 226.308 130.473 232.863 128.96 232.926C127.447 232.989 126.217 227.348 128.676 226.812Z" fill="white"/>
<path d="M154.558 228.42C155.63 227.915 157.869 233.115 156.072 233.714C154.275 234.313 152.446 229.428 154.558 228.42Z" fill="white"/>
<path d="M246.139 114.43C246.675 113.075 248.188 112.413 249.543 112.949C250.899 113.485 251.561 114.997 251.025 116.353C251.025 116.384 250.994 116.384 250.994 116.416C244.184 132.961 235.357 146.26 224.576 156.282C213.51 166.556 194.091 171.693 166.317 171.882C164.867 171.85 163.732 170.621 163.764 169.203C163.795 167.816 164.899 166.713 166.286 166.65C192.861 166.461 211.083 161.671 221.013 152.469C231.227 142.983 239.581 130.314 246.139 114.43Z" fill="#4F4949"/>
<path d="M246.423 114.462C246.958 113.264 248.377 112.76 249.543 113.327C250.71 113.894 251.246 115.281 250.678 116.447C242.293 134.537 232.142 148.151 220.194 157.227C208.12 166.398 190.15 171.188 166.317 171.629C165.025 171.661 163.921 170.621 163.921 169.297C163.89 168.005 164.93 166.902 166.254 166.902C189.173 166.461 206.228 161.954 217.388 153.477C228.642 144.905 238.352 131.889 246.423 114.462Z" fill="#7B7979"/>
<path d="M150.019 169.109L150.366 165.453C150.586 163.152 152.604 161.45 154.905 161.671L170.573 163.089C172.874 163.31 174.577 165.327 174.356 167.627L174.009 171.283C173.789 173.584 171.771 175.285 169.47 175.065L153.802 173.647C151.5 173.458 149.798 171.409 150.019 169.109Z" fill="url(#paint14_linear_4785_43435)"/>
<path fill-rule="evenodd" clip-rule="evenodd" d="M155.41 161.702L170.542 163.089C172.843 163.31 174.545 165.327 174.325 167.659L174.041 170.779L155.252 169.077C153.234 168.888 151.753 167.123 151.942 165.106L151.973 164.57C152.131 162.837 153.676 161.545 155.41 161.702Z" fill="#EFDEB5" fill-opacity="0.51"/>
<path fill-rule="evenodd" clip-rule="evenodd" d="M160.107 162.144L170.542 163.089C172.843 163.31 174.545 165.327 174.325 167.659L174.293 168.194L163.858 167.249C161.557 167.028 159.855 165.011 160.075 162.679L160.107 162.144Z" fill="white"/>
</g>
<defs>
<linearGradient id="paint0_linear_4785_43435" x1="39.9474" y1="204.191" x2="82.502" y2="185.902" gradientUnits="userSpaceOnUse">
<stop stop-color="#0084FF"/>
<stop offset="1" stop-color="#00407D"/>
</linearGradient>
<linearGradient id="paint1_linear_4785_43435" x1="236.068" y1="203.564" x2="200.765" y2="184.961" gradientUnits="userSpaceOnUse">
<stop stop-color="#0084FF"/>
<stop offset="1" stop-color="#00407D"/>
</linearGradient>
<radialGradient id="paint2_radial_4785_43435" cx="0" cy="0" r="1" gradientUnits="userSpaceOnUse" gradientTransform="translate(145.802 181.554) scale(56.3416 56.3233)">
<stop stop-color="#00C5FF"/>
<stop offset="0.3" stop-color="#00A4E5"/>
<stop offset="1" stop-color="#0056A8"/>
</radialGradient>
<linearGradient id="paint3_linear_4785_43435" x1="29.6874" y1="106.006" x2="77.6106" y2="106.006" gradientUnits="userSpaceOnUse">
<stop stop-color="#F6C100"/>
<stop offset="0.52" stop-color="#FFC400"/>
<stop offset="0.99" stop-color="#FFAA00"/>
</linearGradient>
<linearGradient id="paint4_linear_4785_43435" x1="210.65" y1="105.008" x2="255.275" y2="105.008" gradientUnits="userSpaceOnUse">
<stop stop-color="#F6C100"/>
<stop offset="0.52" stop-color="#FFC400"/>
<stop offset="0.99" stop-color="#FFAA00"/>
</linearGradient>
<radialGradient id="paint5_radial_4785_43435" cx="0" cy="0" r="1" gradientUnits="userSpaceOnUse" gradientTransform="translate(142.563 109.731) scale(86.2502 86.2221)">
<stop stop-color="#00C5FF"/>
<stop offset="1" stop-color="#0056A8"/>
</radialGradient>
<radialGradient id="paint6_radial_4785_43435" cx="0" cy="0" r="1" gradientUnits="userSpaceOnUse" gradientTransform="translate(139.103 102.792) scale(73.3715 73.3476)">
<stop stop-color="#00C5FF"/>
<stop offset="1" stop-color="#0056A8"/>
</radialGradient>
<radialGradient id="paint7_radial_4785_43435" cx="0" cy="0" r="1" gradientUnits="userSpaceOnUse" gradientTransform="translate(109.257 94.4646) rotate(-16.2139) scale(35.2701 35.2605)">
<stop stop-color="white"/>
<stop offset="1" stop-color="#C9C8C8"/>
</radialGradient>
<radialGradient id="paint8_radial_4785_43435" cx="0" cy="0" r="1" gradientUnits="userSpaceOnUse" gradientTransform="translate(99.8905 103.925) rotate(-15.8639) scale(27.0308 27.0234)">
<stop stop-color="#41FF02"/>
<stop offset="1" stop-color="#008A17"/>
</radialGradient>
<radialGradient id="paint9_radial_4785_43435" cx="0" cy="0" r="1" gradientUnits="userSpaceOnUse" gradientTransform="translate(174.202 94.1419) rotate(-163.786) scale(35.2701 35.2605)">
<stop stop-color="white"/>
<stop offset="1" stop-color="#C9C8C8"/>
</radialGradient>
<radialGradient id="paint10_radial_4785_43435" cx="0" cy="0" r="1" gradientUnits="userSpaceOnUse" gradientTransform="translate(183.408 104.2) rotate(-164.136) scale(27.0308 27.0234)">
<stop stop-color="#41FF02"/>
<stop offset="1" stop-color="#008A17"/>
</radialGradient>
<linearGradient id="paint11_linear_4785_43435" x1="122.716" y1="228.422" x2="144.106" y2="228.422" gradientUnits="userSpaceOnUse">
<stop stop-color="#F6C100"/>
<stop offset="0.52" stop-color="#FFC400"/>
<stop offset="0.99" stop-color="#FFAA00"/>
</linearGradient>
<linearGradient id="paint12_linear_4785_43435" x1="170.823" y1="228.422" x2="149.434" y2="228.422" gradientUnits="userSpaceOnUse">
<stop stop-color="#F6C100"/>
<stop offset="0.52" stop-color="#FFC400"/>
<stop offset="0.99" stop-color="#FFAA00"/>
</linearGradient>
<linearGradient id="paint13_linear_4785_43435" x1="132.973" y1="139.168" x2="149.926" y2="139.168" gradientUnits="userSpaceOnUse">
<stop stop-color="#F6C100"/>
<stop offset="0.52" stop-color="#FFC400"/>
<stop offset="0.99" stop-color="#FFAA00"/>
</linearGradient>
<linearGradient id="paint14_linear_4785_43435" x1="149.993" y1="168.379" x2="174.371" y2="168.379" gradientUnits="userSpaceOnUse">
<stop stop-color="#F6C100"/>
<stop offset="0.52" stop-color="#FFC400"/>
<stop offset="0.99" stop-color="#FFAA00"/>
</linearGradient>
<clipPath id="clip0_4785_43435">
<rect width="285" height="238" fill="white"/>
</clipPath>
</defs>
</svg>
