<svg width="19" height="19" viewBox="0 0 19 19" fill="none" xmlns="http://www.w3.org/2000/svg">
<path d="M5.32377 0.33312H2.8318C2.48371 0.33365 2.14062 0.406251 1.82325 0.546439C1.5058 0.686649 1.22099 0.891458 0.986985 1.1478C0.752996 1.40412 0.574937 1.70637 0.464147 2.0353C0.353364 2.36425 0.312283 2.71262 0.34352 3.05828C0.632161 5.77727 1.55289 8.37751 3.0324 10.6614C4.37353 12.7719 6.16815 14.5665 8.28487 15.9116C10.5519 17.3818 13.1396 18.3023 15.8335 18.5951C16.1954 18.6278 16.5447 18.5864 16.8743 18.475C17.204 18.3635 17.5069 18.1843 17.7635 17.9489C18.02 17.7137 18.2246 17.4273 18.3641 17.1083C18.5036 16.7893 18.5748 16.4448 18.5735 16.0967L18.5735 13.6C18.5885 13.0076 18.3778 12.4103 17.9813 11.9425C17.585 11.4746 17.0304 11.1688 16.4232 11.0831C15.6782 10.9849 14.9539 10.8044 14.2564 10.5442C13.811 10.3767 13.3247 10.3403 12.8572 10.4401L12.6838 10.4835C12.284 10.5992 11.9183 10.8133 11.6208 11.1075L11.0209 11.7074L10.9211 11.6446C9.45965 10.6936 8.21322 9.44711 7.26216 7.98564L7.19921 7.8857L7.79606 7.28921C8.13543 6.94604 8.36705 6.51695 8.46674 6.04949C8.56643 5.58204 8.53003 5.0958 8.36185 4.64838C8.10241 3.95311 7.92196 3.22874 7.82465 2.49097C7.7387 1.88262 7.43827 1.3333 6.97831 0.937733C6.51841 0.542212 5.93037 0.327386 5.32377 0.33312ZM2.83289 1.99979H5.33984C5.54216 1.99787 5.73825 2.06951 5.89157 2.20137C6.0449 2.33323 6.14504 2.51633 6.17334 2.71656C6.28604 3.57129 6.49697 4.41802 6.80106 5.23294C6.85783 5.38397 6.86996 5.54604 6.83673 5.70186C6.8035 5.85768 6.72629 6.00071 6.61427 6.11399L5.55922 7.16902C5.29395 7.43428 5.23863 7.84408 5.42406 8.17019C6.68452 10.3869 8.51987 12.2222 10.7366 13.4827C11.0627 13.6681 11.4725 13.6128 11.7377 13.3476L12.7961 12.2892C12.9061 12.1804 13.049 12.1033 13.2047 12.0701C13.3608 12.0368 13.5228 12.0489 13.6718 12.105C14.489 12.4099 15.3357 12.6208 16.1979 12.7345C16.3928 12.762 16.5776 12.8639 16.7097 13.0199C16.842 13.1759 16.9122 13.3749 16.9071 13.5792L16.9068 16.1C16.9073 16.2194 16.8835 16.3342 16.837 16.4405C16.7905 16.5469 16.7223 16.6424 16.637 16.7207C16.5512 16.7993 16.4503 16.859 16.3406 16.8961C16.2306 16.9333 16.114 16.9471 15.9983 16.9367C13.5788 16.6736 11.2401 15.8416 9.18522 14.5091C7.26853 13.2911 5.64899 11.6715 4.43514 9.76135C3.09402 7.69106 2.26186 5.34095 2.00214 2.89527C1.99301 2.79306 2.00671 2.67693 2.04364 2.56727C2.08056 2.45764 2.13991 2.3569 2.21789 2.27148C2.29592 2.186 2.39085 2.11774 2.49665 2.07101C2.60252 2.02424 2.71702 2.00001 2.83289 1.99979Z" fill="#1799E5"/>
</svg>
